<svg width="254" height="312" xmlns="http://www.w3.org/2000/svg" xmlns:xlink="http://www.w3.org/1999/xlink" overflow="hidden"><defs><clipPath id="clip0"><rect x="0" y="0" width="254" height="312"/></clipPath></defs><g clip-path="url(#clip0)"><rect x="0" y="0" width="254" height="312.422" fill="#FFFFFF" fill-opacity="0"/><path d="M193.264 142.736 198.007 144.071C231.789 155.903 254 175.941 254 198.669L254 264.511 0 264.511-1.21174e-14 198.669C-1.63001e-14 175.941 22.2109 155.903 55.9931 144.071L60.4881 142.806 73.8624 153.849C88.9834 164.073 107.212 170.043 126.834 170.043 146.455 170.043 164.684 164.073 179.805 153.849Z" fill="#FFFFFF" fill-rule="evenodd"/><path d="M0 250.392C-4.0422e-15 231.178 15.6051 215.601 34.855 215.601L219.145 215.601C238.395 215.601 254 231.178 254 250.392L254 277.632C254 296.846 238.395 312.422 219.145 312.422L34.855 312.422C15.6051 312.422-8.0844e-15 296.846-8.0844e-15 277.632Z" fill="#FFFFFF" fill-rule="evenodd"/><path d="M51.0001 75.3607C51.0001 33.7401 85.0264-9.59442e-15 127-1.91888e-14 168.974-3.83777e-14 203 33.7401 203 75.3607 203 116.981 168.974 150.721 127 150.721 85.0264 150.721 51.0001 116.981 51.0001 75.3607Z" fill="#FFFFFF" fill-rule="evenodd"/></g></svg>