<?xml version="1.0" encoding="UTF-8"?>
<svg width="25.041mm" height="33.042mm" version="1.1" viewBox="0 0 25.041 33.042" xmlns="http://www.w3.org/2000/svg">
<g transform="translate(-49.53 -4.8267)" fill="#08a">
<rect transform="rotate(-90)" x="-29.921" y="49.53" width="23.674" height="2.8408" rx="0" ry="0" stroke-width=".30944"/>
<rect transform="rotate(-90)" x="-14.401" y="60.631" width="8.1542" height="2.8408" rx="0" ry="0" stroke-width=".18161"/>
<rect transform="rotate(-90)" x="-29.921" y="60.631" width="8.1542" height="2.8408" rx="0" ry="0" stroke-width=".18161"/>
<rect transform="scale(-1)" x="-74.572" y="-7.6675" width="25.041" height="2.8408" rx="0" ry="0" stroke-width=".31825"/>
<rect transform="scale(-1)" x="-74.572" y="-31.341" width="25.041" height="2.8408" rx="0" ry="0" stroke-width=".31825"/>
<path d="m49.53 32.025v5.8439h25.041v-5.8439zm2.3875 1.0159h3.3957c0.66334 0 0.99529 0.11694 0.99529 0.3508v0.89156h-1.6216v-0.75288h-2.1084v2.8332h2.1084v-0.80144h1.6216v0.94284c0 0.23224-0.33195 0.34847-0.99529 0.34847h-3.3957c-0.64478 0-0.96687-0.11623-0.96687-0.34847v-3.1133c0-0.23386 0.32208-0.3508 0.96687-0.3508zm5.8255 0h3.5347c0.6587 0 0.98805 0.11694 0.98805 0.3508v3.1133c0 0.23224-0.32935 0.34847-0.98805 0.34847h-3.5347c-0.64478 0-0.96738-0.11623-0.96738-0.34847v-3.1133c0-0.23386 0.3226-0.3508 0.96738-0.3508zm5.0183 0h3.3187c0.64478 0 1.1575 0.0647 1.5379 0.19463 0.38037 0.1283 0.57051 0.3046 0.57051 0.52872v2.3705c0 0.22412-0.19013 0.40004-0.57051 0.52833-0.38038 0.12668-0.89311 0.19036-1.5379 0.19036h-3.3187zm5.8741 0h4.4741v0.50425h-2.8463v1.1134h2.4495v0.49454h-2.4495v1.1957h2.8877v0.50464h-4.5155zm-10.231 0.48949v2.8332h2.2335v-2.8332zm5.9852 0v2.8332h1.1694c0.66334 0 0.99477-0.108 0.99477-0.32399v-2.1899c0-0.21275-0.31792-0.31933-0.95343-0.31933z" stroke-width=".45646"/>
<rect transform="rotate(-90)" x="-14.401" y="71.731" width="8.1542" height="2.8408" rx="0" ry="0" stroke-width=".18161"/>
<path d="m62.272 12.082-1.6412 2.3187 13.941 9.8681v-3.4804z" stroke-width=".31992"/>
<rect transform="rotate(-90)" x="-29.921" y="71.731" width="8.1542" height="2.8408" rx="0" ry="0" stroke-width=".18161"/>
</g>
</svg>
