<?xml version="1.0" encoding="UTF-8" standalone="no"?>
<svg
   width="25.041mm"
   height="33.042mm"
   version="1.1"
   viewBox="0 0 25.041 33.042"
   id="svg7"
   sodipodi:docname="cs-code-logo.svg"
   inkscape:export-filename="cs-code-logo.png"
   inkscape:export-xdpi="96"
   inkscape:export-ydpi="96"
   xmlns:inkscape="http://www.inkscape.org/namespaces/inkscape"
   xmlns:sodipodi="http://sodipodi.sourceforge.net/DTD/sodipodi-0.dtd"
   xmlns="http://www.w3.org/2000/svg"
   xmlns:svg="http://www.w3.org/2000/svg">
  <defs
     id="defs7" />
  <sodipodi:namedview
     id="namedview7"
     pagecolor="#505050"
     bordercolor="#eeeeee"
     borderopacity="1"
     inkscape:showpageshadow="0"
     inkscape:pageopacity="0"
     inkscape:pagecheckerboard="0"
     inkscape:deskcolor="#d1d1d1"
     inkscape:document-units="mm" />
  <g
     transform="translate(-49.53,-4.8267)"
     fill="#0088aa"
     id="g7">
    <path
       d="m 49.53,32.025 v 5.8439 H 74.571 V 32.025 Z m 2.3875,1.0159 h 3.3957 c 0.66334,0 0.99529,0.11694 0.99529,0.3508 v 0.89156 h -1.6216 v -0.75288 h -2.1084 v 2.8332 h 2.1084 v -0.80144 h 1.6216 v 0.94284 c 0,0.23224 -0.33195,0.34847 -0.99529,0.34847 h -3.3957 c -0.64478,0 -0.96687,-0.11623 -0.96687,-0.34847 v -3.1133 c 0,-0.23386 0.32208,-0.3508 0.96687,-0.3508 z m 5.8255,0 h 3.5347 c 0.6587,0 0.98805,0.11694 0.98805,0.3508 v 3.1133 c 0,0.23224 -0.32935,0.34847 -0.98805,0.34847 H 57.743 c -0.64478,0 -0.96738,-0.11623 -0.96738,-0.34847 v -3.1133 c 0,-0.23386 0.3226,-0.3508 0.96738,-0.3508 z m 5.0183,0 H 66.08 c 0.64478,0 1.1575,0.0647 1.5379,0.19463 0.38037,0.1283 0.57051,0.3046 0.57051,0.52872 v 2.3705 c 0,0.22412 -0.19013,0.40004 -0.57051,0.52833 -0.38038,0.12668 -0.89311,0.19036 -1.5379,0.19036 h -3.3187 z m 5.8741,0 h 4.4741 v 0.50425 h -2.8463 v 1.1134 h 2.4495 v 0.49454 h -2.4495 v 1.1957 h 2.8877 v 0.50464 h -4.5155 z m -10.231,0.48949 v 2.8332 h 2.2335 v -2.8332 z m 5.9852,0 v 2.8332 h 1.1694 c 0.66334,0 0.99477,-0.108 0.99477,-0.32399 v -2.1899 c 0,-0.21275 -0.31792,-0.31933 -0.95343,-0.31933 z"
       stroke-width="0.45646"
       id="path5"
       style="display:inline" />
    <path
       id="path7"
       style="display:inline;fill:#0093b7;fill-opacity:1"
       d="m -4.8267,62.0512 h -10.579199 l -6.852295,9.680029 h -6.241996 v -8.259444 h 6.733439 V 62.0512 h -9.574093 v 12.520682 h 1.420068 1.420586 4.231266 2.502173 0.978235 l 7.856884,-11.100097 h 5.2642785 v 8.259444 h -6.7334395 v 2.840653 H -6.2467684 -4.8267 Z"
       transform="rotate(-90)"
       inkscape:label="S" />
    <path
       id="rect1"
       style="display:inline;fill:#007794;fill-opacity:1"
       d="M -4.8267,49.531034 H -6.2467684 V 49.53 H -29.920776 v 10e-4 h -1.420068 v 12.5202 h 9.574093 v -1.420069 h -6.733439 v -8.260478 h 20.8328365 v 8.260478 h -6.7329225 -5.17e-4 L -15.405899,62.0512 H -4.8267 Z"
       transform="rotate(-90)"
       inkscape:label="C" />
  </g>
</svg>
