<?xml version="1.0" encoding="UTF-8" standalone="no"?>
<!-- Created with Inkscape (http://www.inkscape.org/) -->

<svg
   width="28.483095mm"
   height="46.605545mm"
   viewBox="0 0 28.483095 46.605545"
   version="1.1"
   id="svg1"
   xmlns:inkscape="http://www.inkscape.org/namespaces/inkscape"
   xmlns:sodipodi="http://sodipodi.sourceforge.net/DTD/sodipodi-0.dtd"
   xmlns="http://www.w3.org/2000/svg"
   xmlns:svg="http://www.w3.org/2000/svg">
  <sodipodi:namedview
     id="namedview1"
     pagecolor="#505050"
     bordercolor="#eeeeee"
     borderopacity="1"
     inkscape:showpageshadow="0"
     inkscape:pageopacity="0"
     inkscape:pagecheckerboard="0"
     inkscape:deskcolor="#d1d1d1"
     inkscape:document-units="mm" />
  <defs
     id="defs1">
    <inkscape:path-effect
       effect="fillet_chamfer"
       id="path-effect3"
       is_visible="true"
       lpeversion="1"
       nodesatellites_param="F,0,0,1,0,0,0,1 @ F,0,0,1,0,0,0,1 @ F,0,1,1,0,3.175,0,1 @ F,0,1,1,0,3.175,0,1 @ F,0,1,1,0,3.175,0,1 @ F,0,1,1,0,3.175,0,1 @ F,0,0,1,0,0,0,1"
       radius="13"
       unit="px"
       method="auto"
       mode="F"
       chamfer_steps="1"
       flexible="false"
       use_knot_distance="true"
       apply_no_radius="true"
       apply_with_radius="true"
       only_selected="true"
       hide_knots="false" />
  </defs>
  <g
     inkscape:label="Layer 1"
     inkscape:groupmode="layer"
     id="layer1"
     transform="translate(-85.643351,-96.90669)">
    <path
       id="path1"
       style="display:inline;fill:#ffde5d;fill-opacity:1;stroke-width:0.264583"
       d="m 99.884859,96.906746 c -7.865368,-4e-6 -14.24151,6.376134 -14.241508,14.241504 0.002,3.80478 1.522639,7.4024 4.147458,10.03963 1.23443,1.24027 2.640273,3.39431 2.848761,5.13538 l 0.480894,4.0159 a 3.5778808,3.5778808 41.585748 0 0 3.552501,3.15248 h 6.423785 a 3.5778822,3.5778822 138.41426 0 0 3.5525,-3.15248 l 0.4809,-4.0159 c 0.20849,-1.74107 1.61432,-3.89511 2.84875,-5.13536 2.62484,-2.63724 4.14556,-6.23487 4.14747,-10.03965 0,-7.86537 -6.37614,-14.24151 -14.241511,-14.241504 z"
       sodipodi:nodetypes="sccccccs"
       inkscape:original-d="m 99.884859,96.906746 c -7.865368,-4e-6 -14.24151,6.376134 -14.241508,14.241504 0.0025,4.87636 2.499688,9.41245 6.618718,12.02253 l 1.235896,10.32086 h 12.773785 l 1.2359,-10.32086 c 4.11903,-2.61008 6.61627,-7.14617 6.61872,-12.02253 0,-7.86537 -6.37614,-14.24151 -14.241511,-14.241504 z"
       inkscape:path-effect="#path-effect3"
       inkscape:label="bulb" />
    <rect
       style="fill:#7d7d7d;fill-opacity:1;stroke-width:0.238234"
       id="rect3"
       width="11.901217"
       height="1.6545761"
       x="93.93425"
       y="134.43437"
       ry="0.82728803" />
    <rect
       style="fill:#7d7d7d;fill-opacity:1;stroke-width:0.238234"
       id="rect3-0"
       width="11.901217"
       height="1.6545761"
       x="93.93425"
       y="136.85782"
       ry="0.82728803" />
    <rect
       style="fill:#7d7d7d;fill-opacity:1;stroke-width:0.238234"
       id="rect4"
       width="11.901217"
       height="1.6545761"
       x="93.93425"
       y="139.28128"
       ry="0.82728803" />
    <path
       id="rect5"
       style="fill:#7d7d7d;fill-opacity:1;stroke-width:0.297705"
       d="m 95.559232,141.70475 c 0.748494,1.06803 2.399385,1.80748 4.325986,1.80748 1.926612,0 3.576782,-0.73945 4.325272,-1.80748 z" />
    <path
       id="path6"
       style="display:inline;opacity:0.25;fill:#000000;stroke-width:0.264583"
       d="m 99.884942,96.906688 c -0.13815,0 -0.27465,0.0064 -0.41186,0.01034 7.674328,0.218563 13.829638,6.503972 13.829638,14.231172 -0.002,3.80478 -1.52272,7.40247 -4.14755,10.0397 -1.23442,1.24026 -2.64044,3.39402 -2.84892,5.13509 l -0.48059,4.01629 a 3.5778822,3.5778822 0 0 1 -3.55275,3.15226 h 0.82372 a 3.5778822,3.5778822 0 0 0 3.55275,-3.15226 l 0.4806,-4.01629 c 0.20847,-1.74107 1.61449,-3.89483 2.84892,-5.13509 2.62482,-2.63723 4.14564,-6.23492 4.14755,-10.0397 0,-7.86535 -6.37616,-14.241514 -14.241508,-14.241508 z m 4.299478,37.527422 c 0.45832,0 0.82734,0.36902 0.82734,0.82734 0,0.45832 -0.36902,0.82734 -0.82734,0.82734 h 0.82372 c 0.45832,0 0.82734,-0.36902 0.82734,-0.82734 0,-0.45832 -0.36902,-0.82734 -0.82734,-0.82734 z m 0,2.42363 c 0.45832,0 0.82734,0.36902 0.82734,0.82734 0,0.45831 -0.36902,0.82734 -0.82734,0.82734 h 0.82372 c 0.45832,0 0.82734,-0.36903 0.82734,-0.82734 0,-0.45832 -0.36902,-0.82734 -0.82734,-0.82734 z m 0,2.42362 c 0.45832,0 0.82734,0.36902 0.82734,0.82734 0,0.45832 -0.36902,0.82734 -0.82734,0.82734 h 0.82372 c 0.45832,0 0.82734,-0.36902 0.82734,-0.82734 0,-0.45832 -0.36902,-0.82734 -0.82734,-0.82734 z m -0.79737,2.42311 c -0.69406,0.99036 -2.16729,1.69028 -3.913448,1.788 0.13685,0.008 0.27187,0.0196 0.41186,0.0196 1.926598,0 3.576818,-0.73961 4.325308,-1.80764 z" />
    <path
       style="color:#000000;fill:#f9f9f9;stroke-linecap:round;-inkscape-stroke:none"
       d="m 94.425781,100.77734 a 0.70749998,0.70749998 0 0 0 -0.537109,0.0606 c -3.979464,2.1897 -6.314585,6.50636 -5.966797,11.03516 a 0.70749998,0.70749998 0 0 0 0.759766,0.65234 0.70749998,0.70749998 0 0 0 0.652343,-0.75976 c -0.305561,-3.97893 1.740032,-7.76562 5.236328,-9.68946 a 0.70749998,0.70749998 0 0 0 0.279297,-0.96094 0.70749998,0.70749998 0 0 0 -0.423828,-0.33789 z"
       id="path11" />
  </g>
</svg>
