<?xml version="1.0" encoding="UTF-8" standalone="no"?>
<svg
   width="254"
   height="312"
   overflow="hidden"
   version="1.1"
   id="svg17"
   xmlns="http://www.w3.org/2000/svg"
   xmlns:svg="http://www.w3.org/2000/svg">
  <defs
     id="defs5">
    <clipPath
       id="clip0">
      <rect
         x="0"
         y="0"
         width="254"
         height="312"
         id="rect2" />
    </clipPath>
  </defs>
  <g
     clip-path="url(#clip0)"
     id="g15">
    <rect
       x="0"
       y="0"
       width="254"
       height="312.422"
       fill="#000000"
       fill-opacity="0"
       id="rect7" />
    <path
       d="m 193.264,142.736 4.743,1.335 C 231.789,155.903 254,175.941 254,198.669 v 65.842 H 0 v -65.842 c 0,-22.728 22.2109,-42.766 55.9931,-54.598 l 4.495,-1.265 13.3743,11.043 c 15.121,10.224 33.3496,16.194 52.9716,16.194 19.621,0 37.85,-5.97 52.971,-16.194 z"
       fill="#000000"
       fill-rule="evenodd"
       id="path9" />
    <path
       d="m 0,250.392 c 0,-19.214 15.6051,-34.791 34.855,-34.791 h 184.29 c 19.25,0 34.855,15.577 34.855,34.791 v 27.24 c 0,19.214 -15.605,34.79 -34.855,34.79 H 34.855 C 15.6051,312.422 0,296.846 0,277.632 Z"
       fill="#000000"
       fill-rule="evenodd"
       id="path11" />
    <path
       d="M 51.0001,75.3607 C 51.0001,33.7401 85.0264,0 127,0 c 41.974,0 76,33.7401 76,75.3607 0,41.6203 -34.026,75.3603 -76,75.3603 -41.9736,0 -75.9999,-33.74 -75.9999,-75.3603 z"
       fill="#000000"
       fill-rule="evenodd"
       id="path13" />
  </g>
</svg>
