<?xml version="1.0" encoding="UTF-8" standalone="no"?>
<!-- Created with Inkscape (http://www.inkscape.org/) -->

<svg
   width="57.174713mm"
   height="50.085342mm"
   viewBox="0 0 57.174713 50.085342"
   version="1.1"
   id="svg1"
   xmlns:inkscape="http://www.inkscape.org/namespaces/inkscape"
   xmlns:sodipodi="http://sodipodi.sourceforge.net/DTD/sodipodi-0.dtd"
   xmlns="http://www.w3.org/2000/svg"
   xmlns:svg="http://www.w3.org/2000/svg">
  <sodipodi:namedview
     id="namedview1"
     pagecolor="#505050"
     bordercolor="#eeeeee"
     borderopacity="1"
     inkscape:showpageshadow="0"
     inkscape:pageopacity="0"
     inkscape:pagecheckerboard="0"
     inkscape:deskcolor="#d1d1d1"
     inkscape:document-units="mm" />
  <defs
     id="defs1">
    <inkscape:path-effect
       effect="fillet_chamfer"
       id="path-effect6"
       is_visible="true"
       lpeversion="1"
       nodesatellites_param="F,0,1,1,0,0.65915207,0,1 @ F,0,1,1,0,0.65915207,0,1 @ F,0,0,1,0,0.65915207,0,1 @ F,0,1,1,0,0.65915207,0,1 @ F,0,1,1,0,0.65915207,0,1 @ F,0,1,1,0,0.65915207,0,1 @ F,0,1,1,0,0.65915207,0,1 @ F,0,1,1,0,0.65915207,0,1 @ F,0,1,1,0,0.65915207,0,1 @ F,0,1,1,0,0.65915207,0,1 @ F,0,1,1,0,0.65915207,0,1 @ F,0,1,1,0,0.65915207,0,1 @ F,0,1,1,0,0.65915207,0,1 @ F,0,1,1,0,0.65915207,0,1 @ F,0,1,1,0,0.65915207,0,1"
       radius="0"
       unit="px"
       method="auto"
       mode="F"
       chamfer_steps="1"
       flexible="false"
       use_knot_distance="true"
       apply_no_radius="true"
       apply_with_radius="true"
       only_selected="false"
       hide_knots="false" />
  </defs>
  <g
     inkscape:label="Layer 1"
     inkscape:groupmode="layer"
     id="layer1"
     transform="translate(-83.513033,-110.58133)">
    <path
       id="path4"
       style="opacity:1;stroke-width:1.445;stroke-linecap:round"
       d="m 111.57661,110.75863 -27.975988,21.40228 a 0.22321862,0.22321862 71.291581 0 0 0.13563,0.40051 h 7.289956 a 0.65915207,0.65915207 45 0 1 0.659152,0.65915 v 26.78696 a 0.65915207,0.65915207 45 0 0 0.659152,0.65915 h 4.769179 a 21.10374,21.10374 178.21101 0 0 1.317019,-0.0411 l 0.149191,-0.009 a 17.145987,17.145987 178.62359 0 1 1.316951,-0.0316 l 5.041758,0.0726 a 0.64972687,0.64972687 135.41258 0 0 0.65908,-0.64966 v -21.84359 a 0.65915207,0.65915207 135 0 1 0.65915,-0.65915 h 11.68711 a 0.65915207,0.65915207 45 0 1 0.65915,0.65915 v 21.84359 a 0.65915207,0.65915207 45 0 0 0.65915,0.65915 h 6.11742 6.47661 a 0.65915207,0.65915207 135 0 0 0.65915,-0.65915 v -26.78696 a 0.65915207,0.65915207 135 0 1 0.65915,-0.65915 h 7.28996 a 0.22321539,0.22321539 108.70817 0 0 0.13562,-0.4005 l -27.9765,-21.4023 a 0.86161809,0.86161809 179.99975 0 0 -1.04705,1e-5 z"
       inkscape:path-effect="#path-effect6"
       inkscape:original-d="m 112.10013,110.35812 -29.02303,22.2033 h 8.60826 v 28.10526 h 6.087483 l 1.464925,-0.0916 6.359922,0.0916 v -23.16189 h 13.00541 v 23.16189 h 0.95859 6.47713 6.47661 v -28.10526 h 8.60826 z"
       sodipodi:nodetypes="cccccccccccccccc" />
  </g>
</svg>
