<?xml version="1.0" encoding="UTF-8" standalone="no"?>
<!-- Created with Inkscape (http://www.inkscape.org/) -->

<svg
   width="25.041374mm"
   height="33.042263mm"
   viewBox="0 0 25.041374 33.042263"
   version="1.1"
   id="svg5"
   inkscape:version="1.2.2 (732a01da63, 2022-12-09)"
   sodipodi:docname="cs-code-logo.svg"
   xmlns:inkscape="http://www.inkscape.org/namespaces/inkscape"
   xmlns:sodipodi="http://sodipodi.sourceforge.net/DTD/sodipodi-0.dtd"
   xmlns="http://www.w3.org/2000/svg"
   xmlns:svg="http://www.w3.org/2000/svg">
  <sodipodi:namedview
     id="namedview7"
     pagecolor="#505050"
     bordercolor="#eeeeee"
     borderopacity="1"
     inkscape:showpageshadow="0"
     inkscape:pageopacity="0"
     inkscape:pagecheckerboard="0"
     inkscape:deskcolor="#505050"
     inkscape:document-units="mm"
     showgrid="false"
     inkscape:zoom="3.5562851"
     inkscape:cx="276.83382"
     inkscape:cy="118.80375"
     inkscape:window-width="2560"
     inkscape:window-height="1361"
     inkscape:window-x="1911"
     inkscape:window-y="-9"
     inkscape:window-maximized="1"
     inkscape:current-layer="layer1" />
  <defs
     id="defs2" />
  <g
     inkscape:label="Layer 1"
     inkscape:groupmode="layer"
     id="layer1"
     style="fill:#0088aa"
     inkscape:export-filename="cs-logo.svg"
     inkscape:export-xdpi="96"
     inkscape:export-ydpi="96"
     transform="translate(-49.53032,-4.8267201)">
    <rect
       style="fill:#0088aa;stroke-width:0.309437"
       id="rect683"
       width="23.673553"
       height="2.8408263"
       x="-29.920685"
       y="49.530327"
       rx="0"
       ry="0"
       transform="rotate(-90)" />
    <rect
       style="fill:#0088aa;stroke-width:0.181606"
       id="rect683-4"
       width="8.1542225"
       height="2.8408263"
       x="-14.401356"
       y="60.630589"
       rx="0"
       ry="0"
       transform="rotate(-90)" />
    <rect
       style="fill:#0088aa;stroke-width:0.181606"
       id="rect683-4-1"
       width="8.1542215"
       height="2.8408263"
       x="-29.920685"
       y="60.630589"
       rx="0"
       ry="0"
       transform="rotate(-90)" />
    <rect
       style="fill:#0088aa;stroke-width:0.318249"
       id="rect683-2"
       width="25.041355"
       height="2.8408263"
       x="-74.571678"
       y="-7.6675463"
       rx="0"
       ry="0"
       transform="scale(-1)" />
    <rect
       style="fill:#0088aa;stroke-width:0.318249"
       id="rect683-2-0"
       width="25.041351"
       height="2.8408263"
       x="-74.571678"
       y="-31.341099"
       rx="0"
       ry="0"
       transform="scale(-1)" />
    <rect
       style="fill:#0088aa;stroke-width:0.181607"
       id="rect683-4-5"
       width="8.1542225"
       height="2.8408263"
       x="-14.401356"
       y="71.73085"
       rx="0"
       ry="0"
       transform="rotate(-90)" />
    <path
       id="rect683-4-5-0-6"
       style="fill:#0088aa;stroke-width:0.319917"
       inkscape:transform-center-x="-0.84328751"
       inkscape:transform-center-y="5.9183417"
       d="m 62.271679,12.082492 -1.641244,2.318722 13.941268,9.868132 v -3.480409 z" />
    <rect
       style="fill:#0088aa;stroke-width:0.181607"
       id="rect683-4-1-3"
       width="8.1542177"
       height="2.8408263"
       x="-29.920683"
       y="71.73085"
       rx="0"
       ry="0"
       transform="rotate(-90)" />
    <g
       aria-label="CODE"
       transform="scale(1.465344,0.6824336)"
       id="text1262"
       style="font-weight:bold;font-stretch:condensed;font-size:10.9692px;font-family:'Agency FB';-inkscape-font-specification:'Agency FB Bold Condensed';letter-spacing:-0.625592px;display:inline;stroke-width:0.114262">
      <path
         d="m 37.925319,54.725173 q 0,0.765916 -0.765916,0.765916 h -2.613755 q -0.744491,0 -0.744491,-0.765916 v -6.845038 q 0,-0.771272 0.744491,-0.771272 h 2.613755 q 0.765916,0 0.765916,0.771272 v 1.960316 H 36.677358 V 48.18543 h -1.622885 v 6.229092 h 1.622885 V 52.65238 h 1.247961 z"
         id="path243" />
      <path
         d="m 42.511168,54.725173 q 0,0.765916 -0.76056,0.765916 h -2.720876 q -0.744491,0 -0.744491,-0.765916 v -6.845038 q 0,-0.771272 0.744491,-0.771272 h 2.720876 q 0.76056,0 0.76056,0.771272 z M 41.257851,54.414522 V 48.18543 h -1.719293 v 6.229092 z"
         id="path245" />
      <path
         d="m 47.070238,53.911053 q 0,0.739135 -0.439197,1.162264 -0.439196,0.417772 -1.183688,0.417772 h -2.554838 v -8.382226 h 2.554838 q 0.744492,0 1.183688,0.428485 0.439197,0.423128 0.439197,1.162263 z m -1.258673,-0.208886 v -4.815094 q 0,-0.701643 -0.73378,-0.701643 h -0.931953 v 6.229092 h 0.899817 q 0.765916,0 0.765916,-0.712355 z"
         id="path247" />
      <path
         d="m 50.89017,55.491089 h -3.476079 v -8.382226 h 3.443943 v 1.108704 h -2.190626 v 2.447717 h 1.885331 v 1.087279 h -1.885331 v 2.629823 h 2.222762 z"
         id="path249" />
    </g>
  </g>
</svg>
