<?xml version="1.0" encoding="UTF-8" standalone="no"?>
<!-- Created with Inkscape (http://www.inkscape.org/) -->

<svg
   width="25.041384mm"
   height="33.042263mm"
   viewBox="0 0 25.041384 33.042263"
   version="1.1"
   id="svg5"
   inkscape:version="1.2.2 (732a01da63, 2022-12-09)"
   sodipodi:docname="cs-code-logo.svg"
   xmlns:inkscape="http://www.inkscape.org/namespaces/inkscape"
   xmlns:sodipodi="http://sodipodi.sourceforge.net/DTD/sodipodi-0.dtd"
   xmlns="http://www.w3.org/2000/svg"
   xmlns:svg="http://www.w3.org/2000/svg">
  <sodipodi:namedview
     id="namedview7"
     pagecolor="#505050"
     bordercolor="#eeeeee"
     borderopacity="1"
     inkscape:showpageshadow="0"
     inkscape:pageopacity="0"
     inkscape:pagecheckerboard="0"
     inkscape:deskcolor="#505050"
     inkscape:document-units="mm"
     showgrid="false"
     inkscape:zoom="3.5562851"
     inkscape:cx="276.83382"
     inkscape:cy="118.80375"
     inkscape:window-width="2560"
     inkscape:window-height="1361"
     inkscape:window-x="1911"
     inkscape:window-y="-9"
     inkscape:window-maximized="1"
     inkscape:current-layer="layer1" />
  <defs
     id="defs2" />
  <g
     inkscape:label="Layer 1"
     inkscape:groupmode="layer"
     id="layer1"
     style="fill:#0088aa"
     inkscape:export-filename="cs-code-logo_v4.svg"
     inkscape:export-xdpi="96"
     inkscape:export-ydpi="96"
     transform="translate(-49.53032,-4.82672)">
    <rect
       style="fill:#0088aa;stroke-width:0.309437"
       id="rect683"
       width="23.673553"
       height="2.8408263"
       x="-29.920685"
       y="49.530327"
       rx="0"
       ry="0"
       transform="rotate(-90)" />
    <rect
       style="fill:#0088aa;stroke-width:0.181606"
       id="rect683-4"
       width="8.1542225"
       height="2.8408263"
       x="-14.401356"
       y="60.630589"
       rx="0"
       ry="0"
       transform="rotate(-90)" />
    <rect
       style="fill:#0088aa;stroke-width:0.181606"
       id="rect683-4-1"
       width="8.1542215"
       height="2.8408263"
       x="-29.920685"
       y="60.630589"
       rx="0"
       ry="0"
       transform="rotate(-90)" />
    <rect
       style="fill:#0088aa;stroke-width:0.318249"
       id="rect683-2"
       width="25.041355"
       height="2.8408263"
       x="-74.571678"
       y="-7.6675463"
       rx="0"
       ry="0"
       transform="scale(-1)" />
    <rect
       style="fill:#0088aa;stroke-width:0.318249"
       id="rect683-2-0"
       width="25.041351"
       height="2.8408263"
       x="-74.571678"
       y="-31.341099"
       rx="0"
       ry="0"
       transform="scale(-1)" />
    <path
       id="rect683-2-0-6"
       style="fill:#0088aa;stroke-width:0.456462"
       d="m 49.53032,32.02506 v 5.843923 H 74.571686 V 32.02506 Z m 2.387451,1.015879 h 3.395659 c 0.663339,0 0.995288,0.116935 0.995288,0.350798 v 0.891564 h -1.621607 v -0.752876 h -2.108398 v 2.833193 h 2.108398 v -0.801437 h 1.621607 v 0.942844 c 0,0.232239 -0.331949,0.348468 -0.995288,0.348468 h -3.395659 c -0.644783,0 -0.966866,-0.116229 -0.966866,-0.348468 v -3.113288 c 0,-0.233863 0.322083,-0.350798 0.966866,-0.350798 z m 5.825484,0 h 3.534668 c 0.658701,0 0.988054,0.116935 0.988054,0.350798 v 3.113288 c 0,0.232239 -0.329353,0.348468 -0.988054,0.348468 h -3.534668 c -0.644782,0 -0.967382,-0.116229 -0.967382,-0.348468 v -3.113288 c 0,-0.233863 0.3226,-0.350798 0.967382,-0.350798 z m 5.018299,0 h 3.31866 c 0.644785,0 1.157515,0.0647 1.537891,0.194629 0.380374,0.128298 0.570508,0.304604 0.570508,0.528722 v 2.370513 c 0,0.224116 -0.190134,0.400035 -0.570508,0.528334 -0.380376,0.126676 -0.893106,0.190356 -1.537891,0.190356 h -3.31866 z m 5.87406,0 h 4.474145 v 0.504248 h -2.846338 v 1.113387 h 2.449463 v 0.494536 h -2.449463 v 1.195746 H 73.1511 v 0.504637 h -4.515486 z m -10.231417,0.489486 v 2.833193 h 2.233455 v -2.833193 z m 5.985164,0 v 2.833193 h 1.169438 c 0.663337,0 0.994771,-0.107996 0.994771,-0.323994 v -2.189868 c 0,-0.212749 -0.317923,-0.319331 -0.95343,-0.319331 z" />
    <rect
       style="fill:#0088aa;stroke-width:0.181607"
       id="rect683-4-5"
       width="8.1542225"
       height="2.8408263"
       x="-14.401356"
       y="71.73085"
       rx="0"
       ry="0"
       transform="rotate(-90)" />
    <path
       id="rect683-4-5-0-6"
       style="fill:#0088aa;stroke-width:0.319917"
       inkscape:transform-center-x="-0.84328751"
       inkscape:transform-center-y="5.9183417"
       d="m 62.271679,12.082492 -1.641244,2.318722 13.941268,9.868132 v -3.480409 z" />
    <rect
       style="fill:#0088aa;stroke-width:0.181607"
       id="rect683-4-1-3"
       width="8.1542177"
       height="2.8408263"
       x="-29.920683"
       y="71.73085"
       rx="0"
       ry="0"
       transform="rotate(-90)" />
  </g>
</svg>
